<svg xmlns="http://www.w3.org/2000/svg" width="33" height="30" viewBox="0 0 33 30">
    <path fill="#FFF" fill-rule="evenodd" d="M16.184 30h.025-.025zm.118 0h-.009.025-.016zm-.168 0h.027-.027zm.223 0h-.015.027-.012zm-.27 0h.017H16.086zm.322 0h-.014.018-.004zm.05-.001h-.007.024-.018zm-.433 0h.024-.024zm.488 0H16.5l.03-.001h-.016zm-.54-.001h.03H15.976zm.595 0h-.02.027-.007zm-.642 0h.027-.027zm-.06-.002h.025-.025zm.747 0h-.004.024-.02zm-.799-.001h.034-.034zm.855 0h-.013.033-.02zm.056-.001h-.022.035-.013zm-.959 0h.035H15.767zm-.037-.001h.024-.023l-.02-.001h.019zm1.049 0h-.023.024l.02-.001h-.021zm.047-.002h-.012.038-.026zm-1.17 0h.037H15.656zm-.048-.002h.04-.04zm1.274 0h-.021.039-.018zm-1.32-.002l.038.001h-.03l-.009-.001zm1.376 0l-.03.001.038-.001h-.008zm-1.442-.003l.041.002h-.01l-.031-.002zm1.486.002h-.01l.04-.002-.03.002zm-1.533-.004l.043.002h-.02l-.023-.002zm1.589.001l-.02.001.042-.002-.022.001zm-1.635-.003l.043.002-.03-.001h-.013zm1.69 0l-.03.002.044-.002h-.013zm.056-.001l-.039.002.035-.002.041-.002-.037.002zm-1.771 0l.035.002-.04-.002-.036-.002.041.002zm1.814-.003h-.017l.044-.002-.027.002zm-1.9-.002l.043.003-.017-.001-.027-.002zm-.047-.002l.044.002-.027-.001-.017-.001zm2.003 0l-.027.002.044-.002h-.017zm-2.032-.002l.04.003-.038-.003-.037-.002.035.002zm2.088 0l-.037.003.04-.003.034-.002-.037.002zm.042-.003l-.014.001.042-.003-.028.002zm-2.211-.002l.042.003h-.014l-.028-.003zm-.046-.003l.041.003-.022-.001-.02-.002zm2.312.002l-.022.001.04-.003-.018.002zm-2.358-.005l.038.003-.03-.002h-.008zm2.413.001l-.03.002.038-.003-.008.001zm-2.474-.005l.033.002h-.008l-.025-.002zm2.516.002h-.008l.034-.002-.026.002zm.055-.004l-.016.001.034-.002-.018.001zm-2.618-.001l.033.002h-.015l-.018-.002zm-.046-.004l.028.002-.02-.001h-.008zm2.717.001l-.02.001.029-.002-.009.001zm-2.768-.005l.009.001H14.838zm2.812 0l-.001.001h.008-.007zm.054-.003h-.008l.02-.001h-.012zm-2.92-.001l.02.002-.008-.001-.012-.001zm-.048-.004l.015.001h-.01l-.005-.001zm3.02 0l-.01.001.015-.001h-.005zm-4.049-.118C5.945 28.69 0 22.48 0 15 0 6.721 7.28 0 16.246 0c8.966 0 16.246 6.721 16.246 15 0 7.481-5.945 13.691-13.708 14.818V19.336h3.786L23.29 15h-4.506v-2.814c0-1.186.63-2.342 2.648-2.342h2.048V6.152s-1.859-.293-3.636-.293c-3.711 0-6.137 2.077-6.137 5.836V15H9.583v4.336h4.124v10.482z"/>
</svg>
