<svg xmlns="http://www.w3.org/2000/svg" width="186" height="65" viewBox="0 0 186 65">
    <g fill="none" fill-rule="evenodd">
        <g fill="#06A">
            <path d="M25.574 6.75C25.547 3.195 28.267.295 31.648.27c3.38-.027 6.142 2.829 6.167 6.382.025 3.55-2.695 6.454-6.074 6.48-3.382.026-6.142-2.832-6.167-6.383zm3.314-.028c.013 1.629 1.278 2.937 2.828 2.924 1.547-.01 2.795-1.34 2.783-2.968-.013-1.629-1.278-2.937-2.825-2.924-1.55.013-2.796 1.34-2.786 2.968z" transform="translate(-4 -8) rotate(15 7.417 70.909)"/>
            <path d="M33.89 11.958l.29 40.432s.256 11.604-11.276 15.411c0 0-4.814 2.657-12.428-.186 0 0-9.609-4.625-10.37-14.412L.001 38.61l10.183 12.246-5.176.134s1.008 8.255 5.078 10.216c0 0 6.681 5.284 14.492-.309 0 0 3.677-3.11 4.41-8.83l-.06-40.07 4.962-.04z" transform="translate(-4 -8) rotate(15 7.417 70.909)"/>
        </g>
        <path fill="#000" d="M65.528 54.63l3.594.119c-.075.55-.187 1.259-.334 1.849-1.388 0-3.22-.04-4.757-.04-1.535 0-3.182.04-4.68.04.078-.63.19-1.26.303-1.85l2.955-.117c.112 0 .187-.079.187-.157l3.444-21.516c-3.145 0-4.043 0-5.129.118-.711.079-.898.315-1.046.747L58.977 37.6c-.596 0-1.307-.078-1.871-.157.411-2.163.823-4.327 1.275-6.49.858 0 2.056.04 3.479.04h13.439c1.647-.04 5.952-.04 5.952-.04.374 0 .487.079.412.354 0 0-2.583 10.66-3.22 13.295l.225.118c3.37-4.052 6.14-5.035 7.487-5.074.786.118 1.984.786 2.508 2.045.15.354.225.787.225 1.22 0 1.73-1.273 6.686-2.995 11.8-.075.118 0 .236.15.236.449 0 1.46-.197 2.62-.512.11.55.187 1.102.262 1.652-1.535.55-3.743.826-4.904.826-.224 0-.898-.668-.973-1.18.636-2.045 1.834-6.057 2.358-8.181.262-1.023.712-2.872.712-3.894 0-.748-.375-1.416-1.16-1.416-2.284 0-6.552 4.17-7.15 6.45-.413 1.535-1.498 6.373-1.873 7.867h-2.62c.749-3.225 5.166-22.735 5.166-22.735.15-.629-.038-.747-.749-.747-1.01-.04-5.5-.118-8.647-.118l-3.557 21.673zM97.424 43.224c-.6.865-1.31 2.045-1.835 3.973 2.022.039 3.966-.276 5.316-.984.859-.432 1.535-1.062 1.535-2.163 0-1.259-.636-2.518-2.096-2.518-1.2 0-2.137.67-2.92 1.692m-1.947-.472c1.872-2.242 3.666-3.108 5.615-3.108 2.656 0 4.043 2.203 4.078 4.17-.187 1.298-.97 2.95-2.059 3.58-2.056 1.14-4.64 1.494-7.896 1.494-.262.944-.487 2.281-.487 3.029 0 1.848.936 2.91 2.543 2.91 1.5 0 3.856-.865 5.918-2.084.222.511.411 1.022.599 1.534-2.137 1.376-4.904 2.674-7.487 2.674-1.984 0-4.38-1.573-4.38-4.641 0-2.4 1.048-6.608 3.556-9.558M116.59 54.63c.112 0 .184-.078.224-.235l3.407-21.476-2.623-.118c.112-.63.227-1.22.34-1.81h8.647c-.075.59-.188 1.22-.3 1.81l-3.107.118c-.077 0-.112.078-.112.157l-1.46 9.047c0 .078.035.157.187.157h11.94l1.5-9.361-3.148-.079c.075-.63.187-1.259.3-1.849h4.641c1.348 0 2.77-.039 3.894-.039-.073.63-.15 1.22-.26 1.849l-2.473.118c-.075 0-.147.078-.147.157l-3.56 21.555 2.771.118c-.075.59-.187 1.22-.3 1.81h-4.155c-1.495 0-3.144.039-4.492.039.112-.63.19-1.26.3-1.85l2.997-.117c.112 0 .147-.079.187-.236l1.607-10.03c0-.118-.035-.158-.147-.158l-11.98.04-1.759 10.384 3.37.118c-.078.59-.19 1.22-.302 1.849-1.348 0-3.068-.04-4.602-.04-1.348 0-2.92.04-4.156.04.113-.63.222-1.26.335-1.85l2.436-.117zM149.53 53.372c1.31-1.652 2.321-5.074 2.321-7.827 0-1.416-.187-2.242-.599-2.95-.374-.669-.973-1.18-2.059-1.18-1.273 0-2.433.708-3.481 2.163-.936 1.337-2.134 4.445-2.134 7.71 0 1.219.15 2.084.599 2.832.414.747 1.198 1.1 2.059 1.1 1.31 0 2.47-.746 3.294-1.848m1.385 1.416c-1.385 1.377-2.995 2.164-5.315 2.164-1.91 0-3.105-.826-3.781-1.692-.56-.747-1.083-2.124-1.083-3.618 0-3.894 1.532-7.513 3.815-9.795 1.722-1.652 3.444-2.202 5.241-2.202 1.572 0 2.696.59 3.482 1.455.786.865 1.422 2.36 1.422 4.366 0 3.265-1.31 6.766-3.78 9.322M166.076 53.372c1.31-1.652 2.321-5.074 2.321-7.827 0-1.416-.187-2.242-.599-2.95-.374-.669-.973-1.18-2.059-1.18-1.273 0-2.433.708-3.481 2.163-.936 1.337-2.134 4.445-2.134 7.71 0 1.219.15 2.084.599 2.832.414.747 1.198 1.1 2.059 1.1 1.31 0 2.47-.746 3.294-1.848m1.385 1.416c-1.385 1.377-2.995 2.164-5.316 2.164-1.909 0-3.104-.826-3.78-1.692-.56-.747-1.084-2.124-1.084-3.618 0-3.894 1.533-7.513 3.816-9.795 1.722-1.652 3.444-2.202 5.241-2.202 1.572 0 2.695.59 3.482 1.455.786.865 1.422 2.36 1.422 4.366 0 3.265-1.31 6.766-3.78 9.322M177.945 48.062c4.342-5.467 8.048-8.417 9.845-8.417.41 0 1.16 1.101 1.273 2.203-2.77.432-5.091 2.32-7.487 4.72v.196c1.498.748 2.396 2.714 2.92 4.406.45 1.494.784 2.557 1.195 3.343.115.236.34.315.564.315.6-.04 1.386-.197 2.356-.511.078.51.153 1.1.19 1.652-1.46.51-3.556.826-4.981.826-.597-1.023-1.233-2.754-1.72-4.445-.823-2.557-1.46-3.973-2.246-3.973-.224 0-.45.157-.636.354-.637.59-1.273 1.259-1.984 2.085-.375 1.612-.974 4.248-1.31 5.743h-2.584c.824-3.58 4.455-19.864 5.578-24.938l-3.22.236c-.037-.59-.074-1.14-.111-1.691 2.508-.354 5.203-1.141 5.39-1.141.225 0 .786.472 1.048.865-.748 3.265-2.807 11.918-4.305 18.054l.225.118z" transform="translate(-4 -8)"/>
    </g>
</svg>
